REM DIRINDEX 1\2\4,1\2\5,1\2\6,1\3\7,1\3\8,1\3\9,1\3\10
REM DIRNAME folder01,folder02,folder03,folder04,folder05,folder06,folder07,folder08,folder09,folder10
TITLE ""
FILE "a_144.mp3" MP3
  TRACK 01 AUDIO
    TITLE "0:"
    INDEX 01 00:00:00
  TRACK 02 AUDIO
    TITLE "4:cjc057_03235"
    INDEX 01 00:00:15
  TRACK 03 AUDIO
    TITLE "0:"
    INDEX 01 00:01:38
  TRACK 04 AUDIO
    TITLE "5:cjc057_03236"
    INDEX 01 00:01:71
  TRACK 05 AUDIO
    TITLE "0:"
    INDEX 01 00:04:19
  TRACK 06 AUDIO
    TITLE "4:cjc057_03237"
    INDEX 01 00:05:28
  TRACK 07 AUDIO
    TITLE "0:"
    INDEX 01 00:06:47
  TRACK 08 AUDIO
    TITLE "5:cjc057_03238"
    INDEX 01 00:07:05
  TRACK 09 AUDIO
    TITLE "0:"
    INDEX 01 00:08:40
  TRACK 10 AUDIO
    TITLE "4:cjc057_03239"
    INDEX 01 00:09:47
  TRACK 11 AUDIO
    TITLE "0:"
    INDEX 01 00:10:68
  TRACK 12 AUDIO
    TITLE "5:cjc057_03240"
    INDEX 01 00:11:27
  TRACK 13 AUDIO
    TITLE "0:"
    INDEX 01 00:12:61
  TRACK 14 AUDIO
    TITLE "4:cjc057_03241"
    INDEX 01 00:13:69
  TRACK 15 AUDIO
    TITLE "0:"
    INDEX 01 00:15:07
  TRACK 16 AUDIO
    TITLE "5:cjc057_03242"
    INDEX 01 00:15:36
  TRACK 17 AUDIO
    TITLE "0:"
    INDEX 01 00:16:65
  TRACK 18 AUDIO
    TITLE "4:cjc057_03243"
    INDEX 01 00:17:74
  TRACK 19 AUDIO
    TITLE "0:"
    INDEX 01 00:19:05
  TRACK 20 AUDIO
    TITLE "5:cjc057_03244"
    INDEX 01 00:19:40
  TRACK 21 AUDIO
    TITLE "0:"
    INDEX 01 00:21:74
  TRACK 22 AUDIO
    TITLE "4:cjc057_03245"
    INDEX 01 00:23:03
  TRACK 23 AUDIO
    TITLE "0:"
    INDEX 01 00:24:14
  TRACK 24 AUDIO
    TITLE "5:cjc057_03246"
    INDEX 01 00:24:45
  TRACK 25 AUDIO
    TITLE "0:"
    INDEX 01 00:26:62
  TRACK 26 AUDIO
    TITLE "4:cjc057_03247"
    INDEX 01 00:27:73
  TRACK 27 AUDIO
    TITLE "0:"
    INDEX 01 00:29:13
  TRACK 28 AUDIO
    TITLE "5:cjc057_03248"
    INDEX 01 00:29:46
  TRACK 29 AUDIO
    TITLE "0:"
    INDEX 01 00:31:00
  TRACK 30 AUDIO
    TITLE "4:cjc057_03249"
    INDEX 01 00:32:05
  TRACK 31 AUDIO
    TITLE "0:"
    INDEX 01 00:33:26
  TRACK 32 AUDIO
    TITLE "5:cjc057_03250"
    INDEX 01 00:33:58
  TRACK 33 AUDIO
    TITLE "0:"
    INDEX 01 00:34:73
  TRACK 34 AUDIO
    TITLE "4:cjc057_03251"
    INDEX 01 00:36:05
  TRACK 35 AUDIO
    TITLE "0:"
    INDEX 01 00:37:34
  TRACK 36 AUDIO
    TITLE "5:cjc057_03252"
    INDEX 01 00:37:67
  TRACK 37 AUDIO
    TITLE "0:"
    INDEX 01 00:40:44
  TRACK 38 AUDIO
    TITLE "4:cjc057_03253"
    INDEX 01 00:41:51
  TRACK 39 AUDIO
    TITLE "0:"
    INDEX 01 00:42:59
  TRACK 40 AUDIO
    TITLE "5:cjc057_03254"
    INDEX 01 00:43:15
  TRACK 41 AUDIO
    TITLE "0:"
    INDEX 01 00:45:63
  TRACK 42 AUDIO
    TITLE "4:cjc057_03255"
    INDEX 01 00:46:70
  TRACK 43 AUDIO
    TITLE "0:"
    INDEX 01 00:48:20
  TRACK 44 AUDIO
    TITLE "5:cjc057_03256"
    INDEX 01 00:48:51
  TRACK 45 AUDIO
    TITLE "0:"
    INDEX 01 00:49:69
  TRACK 46 AUDIO
    TITLE "4:cjc057_03257"
    INDEX 01 00:51:03
  TRACK 47 AUDIO
    TITLE "0:"
    INDEX 01 00:52:24
  TRACK 48 AUDIO
    TITLE "5:cjc057_03258"
    INDEX 01 00:52:57
  TRACK 49 AUDIO
    TITLE "0:"
    INDEX 01 00:54:09
  TRACK 50 AUDIO
    TITLE "4:cjc057_03259"
    INDEX 01 00:55:14
  TRACK 51 AUDIO
    TITLE "0:"
    INDEX 01 00:56:33
  TRACK 52 AUDIO
    TITLE "5:cjc057_03260"
    INDEX 01 00:56:67
  TRACK 53 AUDIO
    TITLE "0:"
    INDEX 01 00:59:47
  TRACK 54 AUDIO
    TITLE "4:cjc057_03261"
    INDEX 01 01:00:55
  TRACK 55 AUDIO
    TITLE "0:"
    INDEX 01 01:01:66
  TRACK 56 AUDIO
    TITLE "5:cjc057_03262"
    INDEX 01 01:02:26
  TRACK 57 AUDIO
    TITLE "0:"
    INDEX 01 01:04:60
  TRACK 58 AUDIO
    TITLE "4:cjc057_03263"
    INDEX 01 01:05:68
  TRACK 59 AUDIO
    TITLE "0:"
    INDEX 01 01:07:08
  TRACK 60 AUDIO
    TITLE "5:cjc057_03264"
    INDEX 01 01:07:43
  TRACK 61 AUDIO
    TITLE "0:"
    INDEX 01 01:08:48
  TRACK 62 AUDIO
    TITLE "4:cjc057_03265"
    INDEX 01 01:09:54
  TRACK 63 AUDIO
    TITLE "0:"
    INDEX 01 01:10:61
  TRACK 64 AUDIO
    TITLE "5:cjc057_03266"
    INDEX 01 01:11:21
  TRACK 65 AUDIO
    TITLE "0:"
    INDEX 01 01:14:72
